# xmcd
#
# Track frame offsets:
#	150
#	15321
#	31745
#	50685
#	66433
#	82091
#	100387
#	124700
#	137041
#	155653
#	172728
#	187581
#	199214
#	210928
#	229898
#	245463
#	258781
#	270431
#	286130
#	302840
#	315575
#
# Disc length: 4317 seconds
#
# Revision: 0
# Processed by: cddbd v1.5.2PL0 Copyright (c) Steve Scherf et al.
# Submitted via: EasyCDDAExtractor 11.0.3.2
#
DISCID=1710db15
DTITLE=Freud, Marx, Engels and Jung - Helmet, Hitit and Hutit, disk 1
DYEAR=1998
DGENRE=
TTITLE0=Pitk‰tukkainen punaniska
TTITLE1=Kari, Tapio ja m‰
TTITLE2=Mystinen mets‰tyˆmies
TTITLE3=Danny Show
TTITLE4=Mua ‰l‰ hylk‰‰
TTITLE5=S‰rkynytsyd‰miset (viek‰‰ minut baariin)
TTITLE6=Sunnuntaiaamun kadut
TTITLE7=Nattasia katsomassa eli Pekuulijenkka Twist
TTITLE8=Kipee
TTITLE9=Mun vanha pannup‰‰
TTITLE10=Teksasiin
TTITLE11=Tursaan puutarhassa
TTITLE12=Viski and naiset
TTITLE13=Lintumies
TTITLE14=Sammutetuin lyhdyin
TTITLE15=Jotkut p‰iv‰t on kultaa
TTITLE16=Jaloviinaa
TTITLE17=Dracula ja pyh‰ Nicolae
TTITLE18=On se hyv‰ (ettei lehm‰t lenn‰)
TTITLE19=En koskaan mene s‰nkyyn ruman naisen kanssa
TTITLE20=Mets‰n poika
EXTD=
EXTT0=
EXTT1=
EXTT2=
EXTT3=
EXTT4=
EXTT5=
EXTT6=
EXTT7=
EXTT8=
EXTT9=
EXTT10=
EXTT11=
EXTT12=
EXTT13=
EXTT14=
EXTT15=
EXTT16=
EXTT17=
EXTT18=
EXTT19=
EXTT20=
PLAYORDER=
